<svg viewBox="0 0 800 170" xmlns="http://www.w3.org/2000/svg">
  <defs>
    <style>
      @keyframes tw{0%,100%{opacity:.1}50%{opacity:.9}}
      @keyframes na{0%,100%{opacity:.35}50%{opacity:1}}
      @keyframes nb{0%,100%{opacity:.25}50%{opacity:.9}}
      @keyframes nc{0%,100%{opacity:.45}50%{opacity:1}}
      @keyframes fl{from{stroke-dashoffset:100}to{stroke-dashoffset:0}}
      @keyframes tf{0%,100%{opacity:0}30%,70%{opacity:.7}}
    </style>
    <linearGradient id="fadeBot" x1="0" y1="0" x2="0" y2="1">
      <stop offset="0%" stop-color="#060614" stop-opacity="0"/>
      <stop offset="100%" stop-color="#060614" stop-opacity="1"/>
    </linearGradient>
  </defs>

  <!-- Background -->
  <rect width="800" height="170" fill="#060614"/>
  <ellipse cx="175" cy="85" rx="210" ry="90" fill="#0a0828" opacity=".45"/>
  <ellipse cx="640" cy="88" rx="190" ry="92" fill="#08071c" opacity=".65"/>

  <!-- STARS row 1 (y 5-25) -->
  <circle cx="12" cy="8" r=".9" fill="#fff" style="animation:tw 2.1s infinite;animation-delay:0s"/>
  <circle cx="38" cy="15" r=".7" fill="#adf" style="animation:tw 3.2s infinite;animation-delay:.4s"/>
  <circle cx="72" cy="6" r="1.1" fill="#fff" style="animation:tw 1.8s infinite;animation-delay:.8s"/>
  <circle cx="105" cy="20" r=".8" fill="#ddf" style="animation:tw 2.7s infinite;animation-delay:.2s"/>
  <circle cx="140" cy="10" r="1.0" fill="#fff" style="animation:tw 3.5s infinite;animation-delay:.6s"/>
  <circle cx="175" cy="18" r=".7" fill="#adf" style="animation:tw 2.3s infinite;animation-delay:1.0s"/>
  <circle cx="210" cy="7" r="1.2" fill="#fff" style="animation:tw 1.9s infinite;animation-delay:.3s"/>
  <circle cx="250" cy="15" r=".8" fill="#ddf" style="animation:tw 2.8s infinite;animation-delay:.7s"/>
  <circle cx="290" cy="10" r=".9" fill="#fff" style="animation:tw 3.1s infinite;animation-delay:.1s"/>
  <circle cx="330" cy="20" r=".7" fill="#adf" style="animation:tw 2.5s infinite;animation-delay:.5s"/>
  <circle cx="370" cy="8" r="1.0" fill="#fff" style="animation:tw 1.7s infinite;animation-delay:.9s"/>
  <circle cx="410" cy="15" r=".8" fill="#ddf" style="animation:tw 3.3s infinite;animation-delay:.3s"/>
  <circle cx="450" cy="6" r=".9" fill="#fff" style="animation:tw 2.2s infinite;animation-delay:.7s"/>
  <circle cx="488" cy="18" r=".7" fill="#adf" style="animation:tw 2.9s infinite;animation-delay:.1s"/>
  <circle cx="560" cy="10" r=".6" fill="#fff" style="animation:tw 3.4s infinite;animation-delay:.5s"/>
  <circle cx="705" cy="12" r=".6" fill="#ddf" style="animation:tw 2.0s infinite;animation-delay:.8s"/>
  <circle cx="790" cy="8" r=".5" fill="#adf" style="animation:tw 3.1s infinite;animation-delay:.2s"/>

  <!-- STARS row 2 (y 35-55) -->
  <circle cx="25" cy="42" r=".8" fill="#fff" style="animation:tw 2.6s infinite;animation-delay:.3s"/>
  <circle cx="60" cy="48" r=".7" fill="#ddf" style="animation:tw 1.9s infinite;animation-delay:.8s"/>
  <circle cx="95" cy="38" r="1.1" fill="#fff" style="animation:tw 3.0s infinite;animation-delay:.2s"/>
  <circle cx="130" cy="50" r=".9" fill="#adf" style="animation:tw 2.4s infinite;animation-delay:.6s"/>
  <circle cx="165" cy="40" r=".8" fill="#fff" style="animation:tw 2.8s infinite;animation-delay:.1s"/>
  <circle cx="200" cy="48" r="1.2" fill="#ddf" style="animation:tw 1.6s infinite;animation-delay:.9s"/>
  <circle cx="238" cy="38" r=".7" fill="#fff" style="animation:tw 3.2s infinite;animation-delay:.4s"/>
  <circle cx="275" cy="52" r=".8" fill="#adf" style="animation:tw 2.1s infinite;animation-delay:.7s"/>
  <circle cx="315" cy="42" r="1.0" fill="#fff" style="animation:tw 2.7s infinite;animation-delay:.2s"/>
  <circle cx="355" cy="48" r=".7" fill="#ddf" style="animation:tw 3.0s infinite;animation-delay:.5s"/>
  <circle cx="395" cy="38" r=".9" fill="#fff" style="animation:tw 2.3s infinite;animation-delay:.8s"/>
  <circle cx="432" cy="50" r=".8" fill="#adf" style="animation:tw 1.8s infinite;animation-delay:.1s"/>
  <circle cx="468" cy="40" r=".7" fill="#fff" style="animation:tw 3.4s infinite;animation-delay:.4s"/>
  <circle cx="497" cy="48" r=".6" fill="#ddf" style="animation:tw 2.0s infinite;animation-delay:.7s"/>
  <circle cx="548" cy="38" r=".5" fill="#fff" style="animation:tw 2.9s infinite;animation-delay:.3s"/>
  <circle cx="690" cy="42" r=".5" fill="#adf" style="animation:tw 1.7s infinite;animation-delay:.6s"/>

  <!-- STARS row 3 (y 70-90) -->
  <circle cx="18" cy="78" r="1.0" fill="#fff" style="animation:tw 3.3s infinite;animation-delay:.5s"/>
  <circle cx="55" cy="82" r=".7" fill="#adf" style="animation:tw 2.2s infinite;animation-delay:.1s"/>
  <circle cx="92" cy="75" r="1.2" fill="#fff" style="animation:tw 1.7s infinite;animation-delay:.6s"/>
  <circle cx="128" cy="88" r=".8" fill="#ddf" style="animation:tw 2.9s infinite;animation-delay:.3s"/>
  <circle cx="165" cy="72" r=".9" fill="#fff" style="animation:tw 3.5s infinite;animation-delay:.8s"/>
  <circle cx="202" cy="85" r="1.1" fill="#adf" style="animation:tw 2.0s infinite;animation-delay:.2s"/>
  <circle cx="240" cy="78" r=".7" fill="#fff" style="animation:tw 2.6s infinite;animation-delay:.5s"/>
  <circle cx="278" cy="88" r=".8" fill="#ddf" style="animation:tw 1.8s infinite;animation-delay:.9s"/>
  <circle cx="318" cy="75" r="1.0" fill="#fff" style="animation:tw 3.1s infinite;animation-delay:.4s"/>
  <circle cx="358" cy="85" r=".7" fill="#adf" style="animation:tw 2.4s infinite;animation-delay:.7s"/>
  <circle cx="396" cy="78" r=".9" fill="#fff" style="animation:tw 2.8s infinite;animation-delay:.1s"/>
  <circle cx="435" cy="88" r=".8" fill="#ddf" style="animation:tw 1.5s infinite;animation-delay:.5s"/>
  <circle cx="472" cy="75" r=".7" fill="#fff" style="animation:tw 3.2s infinite;animation-delay:.3s"/>
  <circle cx="500" cy="82" r=".6" fill="#adf" style="animation:tw 2.3s infinite;animation-delay:.8s"/>

  <!-- STARS row 4 (y 110-135) -->
  <circle cx="30" cy="118" r=".9" fill="#fff" style="animation:tw 2.5s infinite;animation-delay:.4s"/>
  <circle cx="68" cy="128" r=".7" fill="#ddf" style="animation:tw 3.0s infinite;animation-delay:.8s"/>
  <circle cx="105" cy="115" r=".8" fill="#fff" style="animation:tw 1.8s infinite;animation-delay:.2s"/>
  <circle cx="142" cy="130" r="1.0" fill="#adf" style="animation:tw 2.6s infinite;animation-delay:.6s"/>
  <circle cx="180" cy="120" r=".7" fill="#fff" style="animation:tw 3.3s infinite;animation-delay:.1s"/>
  <circle cx="218" cy="128" r="1.1" fill="#ddf" style="animation:tw 2.1s infinite;animation-delay:.5s"/>
  <circle cx="256" cy="115" r=".8" fill="#fff" style="animation:tw 2.7s infinite;animation-delay:.9s"/>
  <circle cx="295" cy="130" r=".9" fill="#adf" style="animation:tw 1.6s infinite;animation-delay:.3s"/>
  <circle cx="335" cy="118" r=".7" fill="#fff" style="animation:tw 3.1s infinite;animation-delay:.7s"/>
  <circle cx="373" cy="128" r="1.0" fill="#ddf" style="animation:tw 2.3s infinite;animation-delay:.2s"/>
  <circle cx="412" cy="115" r=".8" fill="#fff" style="animation:tw 2.8s infinite;animation-delay:.5s"/>
  <circle cx="450" cy="128" r=".7" fill="#adf" style="animation:tw 1.9s infinite;animation-delay:.8s"/>
  <circle cx="487" cy="118" r=".9" fill="#fff" style="animation:tw 3.4s infinite;animation-delay:.1s"/>

  <!-- STARS row 5 (y 148-162) -->
  <circle cx="20" cy="155" r=".8" fill="#fff" style="animation:tw 2.9s infinite;animation-delay:.3s"/>
  <circle cx="58" cy="162" r=".7" fill="#ddf" style="animation:tw 1.7s infinite;animation-delay:.7s"/>
  <circle cx="98" cy="150" r=".9" fill="#fff" style="animation:tw 3.4s infinite;animation-delay:.2s"/>
  <circle cx="138" cy="158" r=".7" fill="#adf" style="animation:tw 2.2s infinite;animation-delay:.6s"/>
  <circle cx="178" cy="152" r="1.0" fill="#fff" style="animation:tw 2.6s infinite;animation-delay:.1s"/>
  <circle cx="218" cy="160" r=".8" fill="#ddf" style="animation:tw 3.0s infinite;animation-delay:.5s"/>
  <circle cx="258" cy="150" r=".7" fill="#fff" style="animation:tw 1.8s infinite;animation-delay:.9s"/>
  <circle cx="298" cy="158" r=".9" fill="#adf" style="animation:tw 2.4s infinite;animation-delay:.3s"/>
  <circle cx="338" cy="152" r=".8" fill="#fff" style="animation:tw 3.2s infinite;animation-delay:.7s"/>
  <circle cx="378" cy="160" r=".7" fill="#ddf" style="animation:tw 2.0s infinite;animation-delay:.2s"/>
  <circle cx="418" cy="150" r="1.0" fill="#fff" style="animation:tw 2.7s infinite;animation-delay:.6s"/>
  <circle cx="458" cy="158" r=".8" fill="#adf" style="animation:tw 1.5s infinite;animation-delay:.1s"/>
  <circle cx="495" cy="152" r=".7" fill="#fff" style="animation:tw 3.1s infinite;animation-delay:.4s"/>
  <circle cx="735" cy="155" r=".5" fill="#ddf" style="animation:tw 2.3s infinite;animation-delay:.7s"/>
  <circle cx="785" cy="148" r=".4" fill="#fff" style="animation:tw 2.8s infinite;animation-delay:.3s"/>

  <!-- FLOATING CODE LABELS -->
  <text x="22" y="62" font-family="'Courier New',monospace" font-size="11" fill="#00d4ff" style="animation:tf 7s ease-in-out infinite;animation-delay:0s">// latent world model</text>
  <text x="22" y="86" font-family="'Courier New',monospace" font-size="11" fill="#7c8cf8" style="animation:tf 7s ease-in-out infinite;animation-delay:2.3s">// imagining futures</text>
  <text x="22" y="110" font-family="'Courier New',monospace" font-size="11" fill="#a855f7" style="animation:tf 7s ease-in-out infinite;animation-delay:4.6s">// model.dream()</text>

  <!-- EDGES Layer 1 → Layer 2 -->
  <!-- A1(520,45) → B1(647,30) B2(647,70) B3(647,110) B4(647,150) -->
  <line x1="529" y1="45" x2="638" y2="30" stroke="#00d4ff" stroke-width=".7" opacity=".28" stroke-dasharray="6 3" style="animation:fl 2.8s linear infinite;animation-delay:0s"/>
  <line x1="529" y1="45" x2="638" y2="70" stroke="#00d4ff" stroke-width=".8" opacity=".32" stroke-dasharray="6 3" style="animation:fl 2.5s linear infinite;animation-delay:.5s"/>
  <line x1="529" y1="45" x2="638" y2="110" stroke="#00d4ff" stroke-width=".5" opacity=".18" stroke-dasharray="6 3" style="animation:fl 3.2s linear infinite;animation-delay:1.0s"/>
  <line x1="529" y1="45" x2="638" y2="150" stroke="#00d4ff" stroke-width=".4" opacity=".14" stroke-dasharray="6 3" style="animation:fl 3.6s linear infinite;animation-delay:1.5s"/>
  <!-- A2(520,85) → B1 B2 B3 B4 -->
  <line x1="529" y1="85" x2="638" y2="30" stroke="#7c8cf8" stroke-width=".6" opacity=".24" stroke-dasharray="6 3" style="animation:fl 3.0s linear infinite;animation-delay:.3s"/>
  <line x1="529" y1="85" x2="638" y2="70" stroke="#7c8cf8" stroke-width=".9" opacity=".38" stroke-dasharray="6 3" style="animation:fl 2.3s linear infinite;animation-delay:.8s"/>
  <line x1="529" y1="85" x2="638" y2="110" stroke="#7c8cf8" stroke-width=".9" opacity=".38" stroke-dasharray="6 3" style="animation:fl 2.6s linear infinite;animation-delay:.2s"/>
  <line x1="529" y1="85" x2="638" y2="150" stroke="#7c8cf8" stroke-width=".5" opacity=".2" stroke-dasharray="6 3" style="animation:fl 3.1s linear infinite;animation-delay:1.2s"/>
  <!-- A3(520,125) → B1 B2 B3 B4 -->
  <line x1="529" y1="125" x2="638" y2="30" stroke="#a855f7" stroke-width=".4" opacity=".14" stroke-dasharray="6 3" style="animation:fl 3.5s linear infinite;animation-delay:.7s"/>
  <line x1="529" y1="125" x2="638" y2="70" stroke="#a855f7" stroke-width=".5" opacity=".19" stroke-dasharray="6 3" style="animation:fl 2.9s linear infinite;animation-delay:1.1s"/>
  <line x1="529" y1="125" x2="638" y2="110" stroke="#a855f7" stroke-width=".7" opacity=".29" stroke-dasharray="6 3" style="animation:fl 2.4s linear infinite;animation-delay:.4s"/>
  <line x1="529" y1="125" x2="638" y2="150" stroke="#a855f7" stroke-width=".9" opacity=".36" stroke-dasharray="6 3" style="animation:fl 2.7s linear infinite;animation-delay:.9s"/>

  <!-- EDGES Layer 2 → Layer 3 -->
  <!-- B1(647,30) → C1(765,45) C2(765,85) C3(765,125) -->
  <line x1="656" y1="30" x2="756" y2="45" stroke="#00d4ff" stroke-width=".8" opacity=".32" stroke-dasharray="6 3" style="animation:fl 2.6s linear infinite;animation-delay:.2s"/>
  <line x1="656" y1="30" x2="756" y2="85" stroke="#00d4ff" stroke-width=".5" opacity=".2" stroke-dasharray="6 3" style="animation:fl 3.0s linear infinite;animation-delay:.7s"/>
  <line x1="656" y1="30" x2="756" y2="125" stroke="#00d4ff" stroke-width=".3" opacity=".13" stroke-dasharray="6 3" style="animation:fl 3.4s linear infinite;animation-delay:1.2s"/>
  <!-- B2(647,70) → C1 C2 C3 -->
  <line x1="656" y1="70" x2="756" y2="45" stroke="#7c8cf8" stroke-width=".7" opacity=".28" stroke-dasharray="6 3" style="animation:fl 2.9s linear infinite;animation-delay:.5s"/>
  <line x1="656" y1="70" x2="756" y2="85" stroke="#7c8cf8" stroke-width=".9" opacity=".36" stroke-dasharray="6 3" style="animation:fl 2.4s linear infinite;animation-delay:.1s"/>
  <line x1="656" y1="70" x2="756" y2="125" stroke="#7c8cf8" stroke-width=".6" opacity=".24" stroke-dasharray="6 3" style="animation:fl 3.2s linear infinite;animation-delay:.8s"/>
  <!-- B3(647,110) → C1 C2 C3 -->
  <line x1="656" y1="110" x2="756" y2="45" stroke="#a855f7" stroke-width=".5" opacity=".19" stroke-dasharray="6 3" style="animation:fl 3.3s linear infinite;animation-delay:.4s"/>
  <line x1="656" y1="110" x2="756" y2="85" stroke="#a855f7" stroke-width=".9" opacity=".36" stroke-dasharray="6 3" style="animation:fl 2.5s linear infinite;animation-delay:.9s"/>
  <line x1="656" y1="110" x2="756" y2="125" stroke="#a855f7" stroke-width=".8" opacity=".32" stroke-dasharray="6 3" style="animation:fl 2.7s linear infinite;animation-delay:.3s"/>
  <!-- B4(647,150) → C1 C2 C3 -->
  <line x1="656" y1="150" x2="756" y2="45" stroke="#00d4ff" stroke-width=".3" opacity=".12" stroke-dasharray="6 3" style="animation:fl 3.5s linear infinite;animation-delay:1.0s"/>
  <line x1="656" y1="150" x2="756" y2="85" stroke="#00d4ff" stroke-width=".6" opacity=".24" stroke-dasharray="6 3" style="animation:fl 2.8s linear infinite;animation-delay:.6s"/>
  <line x1="656" y1="150" x2="756" y2="125" stroke="#00d4ff" stroke-width=".9" opacity=".35" stroke-dasharray="6 3" style="animation:fl 2.3s linear infinite;animation-delay:.2s"/>

  <!-- NODES Layer 1 – Cyan -->
  <!-- A1 (520, 45) -->
  <circle cx="520" cy="45" r="20" fill="#00d4ff" opacity=".03"/>
  <circle cx="520" cy="45" r="12" fill="#00d4ff" opacity=".07"/>
  <circle cx="520" cy="45" r="8" fill="none" stroke="#00d4ff" stroke-width="1.5" style="animation:na 2.4s ease-in-out infinite;animation-delay:0s"/>
  <circle cx="520" cy="45" r="3.5" fill="#00d4ff" opacity=".95"/>
  <!-- A2 (520, 85) -->
  <circle cx="520" cy="85" r="20" fill="#00d4ff" opacity=".03"/>
  <circle cx="520" cy="85" r="12" fill="#00d4ff" opacity=".07"/>
  <circle cx="520" cy="85" r="8" fill="none" stroke="#00d4ff" stroke-width="1.5" style="animation:nb 2.1s ease-in-out infinite;animation-delay:.8s"/>
  <circle cx="520" cy="85" r="3.5" fill="#00d4ff" opacity=".95"/>
  <!-- A3 (520, 125) -->
  <circle cx="520" cy="125" r="20" fill="#00d4ff" opacity=".03"/>
  <circle cx="520" cy="125" r="12" fill="#00d4ff" opacity=".07"/>
  <circle cx="520" cy="125" r="8" fill="none" stroke="#00d4ff" stroke-width="1.5" style="animation:nc 2.7s ease-in-out infinite;animation-delay:1.6s"/>
  <circle cx="520" cy="125" r="3.5" fill="#00d4ff" opacity=".95"/>

  <!-- NODES Layer 2 – Purple -->
  <!-- B1 (647, 30) -->
  <circle cx="647" cy="30" r="20" fill="#7c8cf8" opacity=".03"/>
  <circle cx="647" cy="30" r="12" fill="#7c8cf8" opacity=".07"/>
  <circle cx="647" cy="30" r="8" fill="none" stroke="#7c8cf8" stroke-width="1.5" style="animation:nb 2.2s ease-in-out infinite;animation-delay:.3s"/>
  <circle cx="647" cy="30" r="3.5" fill="#7c8cf8" opacity=".95"/>
  <!-- B2 (647, 70) -->
  <circle cx="647" cy="70" r="20" fill="#7c8cf8" opacity=".03"/>
  <circle cx="647" cy="70" r="12" fill="#7c8cf8" opacity=".07"/>
  <circle cx="647" cy="70" r="8" fill="none" stroke="#7c8cf8" stroke-width="1.5" style="animation:na 2.5s ease-in-out infinite;animation-delay:1.1s"/>
  <circle cx="647" cy="70" r="3.5" fill="#7c8cf8" opacity=".95"/>
  <!-- B3 (647, 110) -->
  <circle cx="647" cy="110" r="20" fill="#7c8cf8" opacity=".03"/>
  <circle cx="647" cy="110" r="12" fill="#7c8cf8" opacity=".07"/>
  <circle cx="647" cy="110" r="8" fill="none" stroke="#7c8cf8" stroke-width="1.5" style="animation:nc 2.9s ease-in-out infinite;animation-delay:.6s"/>
  <circle cx="647" cy="110" r="3.5" fill="#7c8cf8" opacity=".95"/>
  <!-- B4 (647, 150) -->
  <circle cx="647" cy="150" r="20" fill="#7c8cf8" opacity=".03"/>
  <circle cx="647" cy="150" r="12" fill="#7c8cf8" opacity=".07"/>
  <circle cx="647" cy="150" r="8" fill="none" stroke="#7c8cf8" stroke-width="1.5" style="animation:nb 2.3s ease-in-out infinite;animation-delay:1.9s"/>
  <circle cx="647" cy="150" r="3.5" fill="#7c8cf8" opacity=".95"/>

  <!-- NODES Layer 3 – Violet -->
  <!-- C1 (765, 45) -->
  <circle cx="765" cy="45" r="20" fill="#a855f7" opacity=".03"/>
  <circle cx="765" cy="45" r="12" fill="#a855f7" opacity=".07"/>
  <circle cx="765" cy="45" r="8" fill="none" stroke="#a855f7" stroke-width="1.5" style="animation:nc 2.6s ease-in-out infinite;animation-delay:.9s"/>
  <circle cx="765" cy="45" r="3.5" fill="#a855f7" opacity=".95"/>
  <!-- C2 (765, 85) -->
  <circle cx="765" cy="85" r="20" fill="#a855f7" opacity=".03"/>
  <circle cx="765" cy="85" r="12" fill="#a855f7" opacity=".07"/>
  <circle cx="765" cy="85" r="8" fill="none" stroke="#a855f7" stroke-width="1.5" style="animation:na 2.1s ease-in-out infinite;animation-delay:.4s"/>
  <circle cx="765" cy="85" r="3.5" fill="#a855f7" opacity=".95"/>
  <!-- C3 (765, 125) -->
  <circle cx="765" cy="125" r="20" fill="#a855f7" opacity=".03"/>
  <circle cx="765" cy="125" r="12" fill="#a855f7" opacity=".07"/>
  <circle cx="765" cy="125" r="8" fill="none" stroke="#a855f7" stroke-width="1.5" style="animation:nb 2.4s ease-in-out infinite;animation-delay:1.4s"/>
  <circle cx="765" cy="125" r="3.5" fill="#a855f7" opacity=".95"/>

  <!-- Bottom fade -->
  <rect y="135" width="800" height="35" fill="url(#fadeBot)"/>
</svg>
